<svg width="67" height="55" viewBox="0 0 67 55" fill="none" xmlns="http://www.w3.org/2000/svg">
<path d="M18.5 2.5C5.41943 15.9769 2.38785 27.9482 2.49624 32.3805C2.4978 32.4443 2.55841 32.4849 2.62018 32.4689L31.1864 25.0811C31.2817 25.0565 31.3515 25.1697 31.2867 25.2438L7.22135 52.747C7.15587 52.8219 7.22789 52.936 7.32364 52.9092L35.44 45.0168C35.4767 45.0065 35.5044 44.9762 35.5113 44.9388L42.9366 4.84254C42.9549 4.74378 43.091 4.73061 43.1279 4.82404L50.4081 23.2673C50.4413 23.3513 50.56 23.3518 50.5939 23.2681L58.8519 2.86578C58.8909 2.7696 59.0324 2.78903 59.044 2.89215L64.5 51.5" stroke="white" stroke-width="4"/>
</svg>
